# xmcd
#
# Track frame offsets: 
#        150
#        3928
#        13750
#        25212
#        36625
#        50076
#        64827
#        80511
#        92198
#        104134
#        115519
#        128102
#        141916
#        153405
#
# Disc length: 2277 seconds
#
# Revision: 0
# Processed by: cddbd v1.5.2PL0 Copyright (c) Steve Scherf et al.
# Submitted via: ExactAudioCopy v0.99pb5
#
DISCID=c008e30e
DTITLE=Feestkapel De Blaasbalgen - Allemachtig Prachtig
DYEAR=2010
DGENRE=Blues
TTITLE0=Introduction
TTITLE1=Bamboleo
TTITLE2=Circle of life
TTITLE3=Salomé
TTITLE4=Dan volg je haar benen
TTITLE5=Ik kom er aan
TTITLE6=Bob Marley medley
TTITLE7=Als de dag van toen
TTITLE8=Bella Italia
TTITLE9=Elvis medley
TTITLE10=El mundo bailando
TTITLE11=Het dorp
TTITLE12=I want to hold your hand
TTITLE13=Krijg toch allemaal de kolere
EXTD=
EXTT0=
EXTT1=
EXTT2=
EXTT3=
EXTT4=
EXTT5=
EXTT6=
EXTT7=
EXTT8=
EXTT9=
EXTT10=
EXTT11=
EXTT12=
EXTT13=
PLAYORDER=
